/* XPM */
static char * C:\Users\Dell_Fine\Desktop\img\carrot_b_xpm[] = {
"32 32 159 2",
"  	c None",
". 	c #83DC6E",
"+ 	c #76C863",
"@ 	c #63A853",
"# 	c #82DA6D",
"$ 	c #65AA54",
"% 	c #050201",
"& 	c #80D86C",
"* 	c #79CC66",
"= 	c #559247",
"- 	c #457C3B",
"; 	c #235424",
"> 	c #13270E",
", 	c #0B0403",
"' 	c #558F46",
") 	c #5E9E4E",
"! 	c #72C15F",
"~ 	c #1E481E",
"{ 	c #2E6B30",
"] 	c #193315",
"^ 	c #0F0604",
"/ 	c #335728",
"( 	c #5A994A",
"_ 	c #447638",
": 	c #4C823E",
"< 	c #235023",
"[ 	c #1A3716",
"} 	c #265726",
"| 	c #295E29",
"1 	c #111307",
"2 	c #457839",
"3 	c #000000",
"4 	c #25451E",
"5 	c #050001",
"6 	c #1F441D",
"7 	c #0F0404",
"8 	c #295F2A",
"9 	c #111608",
"0 	c #5EA04E",
"a 	c #2A4B21",
"b 	c #CE5938",
"c 	c #EA5D3E",
"d 	c #E15C3C",
"e 	c #294B21",
"f 	c #2A5324",
"g 	c #2C662D",
"h 	c #235123",
"i 	c #14220D",
"j 	c #245324",
"k 	c #2C662E",
"l 	c #2E6A2F",
"m 	c #80D76C",
"n 	c #619449",
"o 	c #3C1309",
"p 	c #D35437",
"q 	c #F0603F",
"r 	c #F56241",
"s 	c #EC5E3E",
"t 	c #391209",
"u 	c #383918",
"v 	c #2D692F",
"w 	c #245123",
"x 	c #121708",
"y 	c #255425",
"z 	c #223919",
"A 	c #3A622E",
"B 	c #68B057",
"C 	c #BF4B30",
"D 	c #86321F",
"E 	c #D75538",
"F 	c #050101",
"G 	c #1F451D",
"H 	c #0F0504",
"I 	c #81D86C",
"J 	c #76C763",
"K 	c #77A150",
"L 	c #772C1B",
"M 	c #CB5034",
"N 	c #A43F28",
"O 	c #762B1A",
"P 	c #D85538",
"Q 	c #E0593B",
"R 	c #DD583A",
"S 	c #5F4823",
"T 	c #29602B",
"U 	c #37662F",
"V 	c #3F6A32",
"W 	c #81D96C",
"X 	c #75C562",
"Y 	c #A13E28",
"Z 	c #4E1A0E",
"` 	c #BE4A30",
" .	c #6BB65A",
"..	c #77A552",
"+.	c #9A3B25",
"@.	c #C44D32",
"#.	c #D45437",
"$.	c #80954A",
"%.	c #7ED56A",
"&.	c #7B2E1C",
"*.	c #649F4E",
"=.	c #B4462D",
"-.	c #C54D32",
";.	c #4CD46D",
">.	c #315627",
",.	c #381108",
"'.	c #38BA58",
").	c #E55B3C",
"!.	c #993A25",
"~.	c #76C663",
"{.	c #1B5327",
"].	c #DC5739",
"^.	c #508943",
"/.	c #3C6A32",
"(.	c #D15838",
"_.	c #DF593A",
":.	c #F06040",
"<.	c #DE583A",
"[.	c #AD432B",
"}.	c #768C45",
"|.	c #49CC69",
"1.	c #4B813E",
"2.	c #000101",
"3.	c #E75C3D",
"4.	c #A9412A",
"5.	c #599749",
"6.	c #F16040",
"7.	c #3A1108",
"8.	c #3B1208",
"9.	c #A74029",
"0.	c #F26140",
"a.	c #8B3521",
"b.	c #547639",
"c.	c #81D96D",
"d.	c #80D76B",
"e.	c #7DD269",
"f.	c #637D3D",
"g.	c #531D10",
"h.	c #E85C3D",
"i.	c #531C10",
"j.	c #541C10",
"k.	c #A53F29",
"l.	c #000100",
"m.	c #E25A3B",
"n.	c #4E8641",
"o.	c #5D9E4D",
"p.	c #D15236",
"q.	c #A74129",
"r.	c #816E38",
"s.	c #6EBA5C",
"t.	c #AB6839",
"u.	c #C34D32",
"v.	c #A46E3B",
"w.	c #237B38",
"x.	c #308C46",
"y.	c #559146",
"z.	c #39A252",
"A.	c #298E42",
"B.	c #71BF5F",
". . . . . . . . . . . . . . . . . . . . . . . . . . . . . . . . ",
". . . . . . . . . . . . . . . . . . . . . . . . . . . . . . . . ",
". . . . . . . . . . . . . . . . . . . . . . . . . . . . . . . . ",
". . . . . . . . . . . . . . . . . . . . . . + @ @ @ @ @ # . . . ",
". . . . . . . . . . . . . . . . . . . . . . $ % % % % % & . . . ",
". . . . . . . . . . . . . . . . . . . . * = - ; ; ; > , ' ) . . ",
". . . . . . . . . . . . . . . . . . . . ! % ~ { { { ] ^ ^ / . . ",
". . . . . . . . . . . . . . . ( _ _ : . ! % ~ { < [ } | 1 / . . ",
". . . . . . . . . . . . . . . 2 3 3 4 . ! 5 ~ { 6 7 8 { 9 / . . ",
". . . . . . . . . . . . . 0 a b c c d e f g h i j k l { 9 / . . ",
". . . . . . . . . . . # m n o p q r s t u v w x y v v v z A . . ",
". . . . . . . . . . . B % C r D 3 s r r E F ~ { G H H H I . . . ",
". . . . . . . . . & J K L M r N O P Q r R L S T U V V V W . . . ",
". . . . . . . . . X % Y r r r r r Z Z r r r ` % B . . . . . . . ",
". . . . . . . #  ...+.@.r r r r r N N r r r #.+.$. .%.. . . . . ",
". . . . . . . & % &.r r r r r r r r r r r r r r Y % X . . . . . ",
". . . . . . $ *.=.-.r r r r r r r r r r r r r r Y % X . . . . . ",
". . ;.;.. . >.,.r r r r r r r r r r r r r r r r Y % X . . . . . ",
". . . '.;.. >.,.r ).!.!.!.#.r r r r r r r r #.+.$. .%.. . . . . ",
". . ~.~.'.. {.,.r ].3 3 3 ` r r r r r r r r ` % B . . . . . . . ",
". . . ~.^./.(._.r :.<.<.<.[.O R r r r r R L }.J |.;.. . . . . . ",
". . . . 1.2.3.r r r r r r 4.3 E r r r r E % 5.. . '.;.. . ;.;.. ",
". . . . 1.2.3.6.7.8.8.9.r 0.q a.t s s t b.m c.. ~.~.'.. '.;.. . ",
". . d.e.f.g.h.6.i.j.j.k.c :.r D l.m.d e n.. . . . ~.~.. '.~.~.. ",
". . o.% p.r r r r r r -.3 ` r D % l.4 . . . . . . . . . ~.~.. . ",
". . o.% p.r r r r r r -.% q.P r._ _ : . . . . . . . . . . . . . ",
". . o.% p.r r r r r r -.% % % ! . . . . . . . . ;.;.. . . . . . ",
". . s.= t.u.u.u.u.u.u.v.w.x.= * . . . . . . . '.;.. . . . . . . ",
". . . . 1.% % % % % % y.'.~.~.. . . . . '.'.. '.~.~.. . . . . . ",
". . . . s.@ @ @ @ z.A.B.~.~.. . . . . ;.;.~.. ~.~.. . . . . . . ",
". . . . . . . . . ~.~.. . . . . . . . . . . . . . . . . . . . . ",
". . . . . . . . . . . . . . . . . . . . . . . . . . . . . . . . "};
