/* XPM */
static char * C:\Users\Dell_Fine\Desktop\img\carrot2_b_xpm[] = {
"32 32 224 2",
"  	c None",
". 	c #83DC6E",
"+ 	c #73C260",
"@ 	c #559247",
"# 	c #5FA24F",
"$ 	c #72C05F",
"% 	c #4D8641",
"& 	c #03120A",
"* 	c #294C23",
"= 	c #63A953",
"- 	c #72C15F",
"; 	c #467D3D",
"> 	c #08301C",
", 	c #0B3520",
"' 	c #0A341F",
") 	c #072D1A",
"! 	c #6BB559",
"~ 	c #7ACD66",
"{ 	c #79CB65",
"] 	c #407237",
"^ 	c #0C3F26",
"/ 	c #125031",
"( 	c #11472B",
"_ 	c #125232",
": 	c #042011",
"< 	c #042111",
"[ 	c #010D05",
"} 	c #66AE55",
"| 	c #386531",
"1 	c #0F4329",
"2 	c #114D2F",
"3 	c #135936",
"4 	c #145835",
"5 	c #0F2917",
"6 	c #16633D",
"7 	c #052816",
"8 	c #3A622E",
"9 	c #104228",
"0 	c #0F3B23",
"a 	c #0D0503",
"b 	c #0F2C18",
"c 	c #176940",
"d 	c #092F1C",
"e 	c #3BA856",
"f 	c #0F331E",
"g 	c #0D0B05",
"h 	c #17683F",
"i 	c #0B3A23",
"j 	c #67AE56",
"k 	c #3E6932",
"l 	c #1E4D2C",
"m 	c #0F2F1B",
"n 	c #0D150A",
"o 	c #113D24",
"p 	c #155F39",
"q 	c #16603A",
"r 	c #16643E",
"s 	c #0C3A23",
"t 	c #5C9D4E",
"u 	c #78CA64",
"v 	c #528B43",
"w 	c #10331D",
"x 	c #114227",
"y 	c #155E39",
"z 	c #0F492C",
"A 	c #082A19",
"B 	c #71BF5F",
"C 	c #0E170B",
"D 	c #0F3A22",
"E 	c #16633C",
"F 	c #103820",
"G 	c #135231",
"H 	c #1A482B",
"I 	c #0B2717",
"J 	c #569449",
"K 	c #78CA65",
"L 	c #74C361",
"M 	c #68AF56",
"N 	c #5A994B",
"O 	c #0F3720",
"P 	c #145A37",
"Q 	c #145432",
"R 	c #12482B",
"S 	c #155C38",
"T 	c #17663E",
"U 	c #195332",
"V 	c #170804",
"W 	c #4F8842",
"X 	c #589448",
"Y 	c #11180C",
"Z 	c #10301C",
"` 	c #135534",
" .	c #0F2615",
"..	c #155A36",
"+.	c #16663E",
"@.	c #165433",
"#.	c #190A05",
"$.	c #457538",
"%.	c #7BCF67",
"&.	c #7CD168",
"*.	c #528942",
"=.	c #142E1B",
"-.	c #0F3C24",
";.	c #0F2816",
">.	c #15613B",
",.	c #0F2A17",
"'.	c #155D38",
").	c #145332",
"!.	c #1A2810",
"~.	c #375E2B",
"{.	c #477B3B",
"].	c #000201",
"^.	c #030302",
"/.	c #050000",
"(.	c #39612D",
"_.	c #3C612E",
":.	c #190906",
"<.	c #B40705",
"[.	c #E30505",
"}.	c #E8321D",
"|.	c #E25733",
"1.	c #04110B",
"2.	c #0D0302",
"3.	c #0D0403",
"4.	c #487B3B",
"5.	c #4CD46D",
"6.	c #3A5E2C",
"7.	c #C42811",
"8.	c #D30605",
"9.	c #E64327",
"0.	c #F25733",
"a.	c #F35935",
"b.	c #F25D37",
"c.	c #E45734",
"d.	c #002916",
"e.	c #0E2A17",
"f.	c #0E150A",
"g.	c #5FA14F",
"h.	c #79CC66",
"i.	c #38BA58",
"j.	c #477538",
"k.	c #D20605",
"l.	c #ED4629",
"m.	c #D04F2E",
"n.	c #AC4024",
"o.	c #F55E38",
"p.	c #0F0604",
"q.	c #6AB358",
"r.	c #7DD269",
"s.	c #76C663",
"t.	c #46C364",
"u.	c #160906",
"v.	c #B60705",
"w.	c #DC0505",
"x.	c #F05130",
"y.	c #E25633",
"z.	c #D3502F",
"A.	c #140806",
"B.	c #34AB51",
"C.	c #150906",
"D.	c #B90504",
"E.	c #E55130",
"F.	c #ED5B36",
"G.	c #BE472A",
"H.	c #5B9A4B",
"I.	c #7DD369",
"J.	c #5A964A",
"K.	c #AA341D",
"L.	c #E15633",
"M.	c #7ED46A",
"N.	c #67AD55",
"O.	c #350906",
"P.	c #6F0806",
"Q.	c #E72B18",
"R.	c #F35834",
"S.	c #E85935",
"T.	c #DE5532",
"U.	c #CE5932",
"V.	c #416932",
"W.	c #68AE56",
"X.	c #260906",
"Y.	c #710B07",
"Z.	c #E4120A",
"`.	c #A23C23",
" +	c #1F230F",
".+	c #263317",
"++	c #426B33",
"@+	c #810806",
"#+	c #E62716",
"$+	c #8B331D",
"%+	c #599448",
"&+	c #5B984A",
"*+	c #222912",
"=+	c #8B321C",
"-+	c #E25532",
";+	c #3A1308",
">+	c #7A2C19",
",+	c #280D08",
"'+	c #66AB54",
")+	c #81D96D",
"!+	c #8B0806",
"~+	c #DA321D",
"{+	c #F15D37",
"]+	c #782B18",
"^+	c #38130A",
"/+	c #3DA654",
"(+	c #63A652",
"_+	c #395C2B",
":+	c #990706",
"<+	c #36B254",
"[+	c #8A0604",
"}+	c #C72431",
"|+	c #D63A43",
"1+	c #AC4025",
"2+	c #65AA54",
"3+	c #7FD56A",
"4+	c #8F0504",
"5+	c #B52533",
"6+	c #9D3243",
"7+	c #2B3F1D",
"8+	c #589247",
"9+	c #5C9A4C",
"0+	c #477438",
"a+	c #558D45",
". . . . . . . . . . . . . . . . . . . . . . . . . . . . . . . . ",
". . . . . . . . . . . . . . . . . . . . . . . . . . . . . . . . ",
". . . . . . . . . . . . . . . . . . . . + @ # . . . . . . . . . ",
". . . . . . . . . . . . . . . . . . . $ % & * = . . . . . . . . ",
". . . . . . . . . . . . . . . . . . - ; > , ' ) ! ! ! ~ . . . . ",
". . . . . . . . . . . . . . . . . { ] ^ / / ( _ : < [ } . . . . ",
". . . . . . . . . . . . . . . . . | 1 2 3 4 5 6 2 2 7 } . . . . ",
". . . . . . . . . . . . . . . . . 8 9 2 0 a b c 2 2 d e . . . . ",
". . . . . . . . . . . . . . . . . 8 9 f g a b c h 6 i j . . . . ",
". . . . . . . . . . . . . . . . k l m n o p q c c r s t . . . . ",
". . . . . . . . . . . . . u v v a 4 w x y c c c c z A j . . . . ",
". . . . . . . . . . . . . B C D D E F G c c c c H I J K . . . . ",
". . . . . . . . . . . L M N O 2 P Q R S c c T U V W { . . . . . ",
". . . . . . . . . . . X Y Z ( ` S  ...c c +.@.#.$.%.. . . . . . ",
". . . . . . . . . . &.*.=.-.;.>.,.,.'.c +.).!.~.. . . . . . . . ",
". . . . . . . . . . {.].].].^./.c c c c G a (.. . . . . . . . . ",
". . . . . . . . . _.:.<.[.}.|.1.c c F 2.3.4.. . . . . . . . . . ",
". . 5.5.. . . . 6.7.8.9.0.a.b.c.d.e.f.g.h.&.. . . . . . . . . . ",
". . . i.5.. %.j.:.k.l.a.m.n.o.o.p.q.+ r.. . . . . . . . . . . . ",
". . s.s.i.. t.u.v.w.x.o.y.z.o.o.A.{ . . . . . . . . . . . . . . ",
". . . s.s.. B.C.[.D.E.o.o.o.F.G.H.I.. . . . . . 5.5.. . . . . . ",
". . . . . r.J.C.[.K.L.o.o.o.y.:.. . . . . . . . . i.5.. . 5.5.. ",
". . . . M.N.O.P.Q.R.o.S.T.T.U.V.. . . . . . . . s.s.i.. i.5.. . ",
". . . . W.X.Y.Z.o.o.b.`. +.+++. . . . . . . . . . s.s.. i.s.s.. ",
". . . . W.@+#+o.o.o.$+:.%+. . . . . . . . . . . . . . . s.s.. . ",
". . . &+*+=+-+;+o.>+,+'+)+. . . . . . . . . . . . . . . . . . . ",
". . . %+!+~+{+T.]+^+/+M.. 5.5.. . . . . . . . . 5.5.. . . . . . ",
". . (+_+:+}.o.o.A.J.<+. i.5.. . . . . . . . . i.5.. . . . . . . ",
". . 4.[+}+|+1+1+2+3+s.. i.s.s.. . . . . i.i.. i.s.s.. . . . . . ",
". . 4.4+5+6+7+8+. 5.i.. s.s.. . . . . 5.5.s.. s.s.. . . . . . . ",
". . 9+0+0+0+a+. . s.s.. . . . . . . . . . . . . . . . . . . . . ",
". . . . . . . . . . . . . . . . . . . . . . . . . . . . . . . . "};
