/* XPM */
static char * C:\Users\Dell_Fine\Desktop\img\bun_up_xpm[] = {
"32 32 10 1",
" 	c None",
".	c #83DC6E",
"+	c #3A3737",
"@	c #EFE9E7",
"#	c #B7B3B2",
"$	c #827C7C",
"%	c #4CD46D",
"&	c #38BA58",
"*	c #76C663",
"=	c #40BC5B",
"................................",
".......+++.............+++......",
"......+@@#++.........++#@@+.....",
"......+@@@@$+.......+$@@@@+.....",
"......+$@@@#$+.....+$#@@@$+.....",
".......+#@@@#$+++++$#@@@#+......",
"........+$@@@#+++++#@@@$+.......",
".........+$@@@#$$$#@@@$+..%%....",
"..........+#@@#####@@#+&.&%.....",
"...........+#@#####@#+**.&**....",
"..........+$@#######@$+=.**.....",
".........++###@@@@@###++........",
".........++##@@@@@@@##++........",
".........++#@@@@@@@@@#++........",
".........+#$@@@@@@@@@$#+........",
".........+#+##@@@@@##+#+........",
"..........+#$#@@@@@#$#$+........",
"..%%......++##@@@@@##++.........",
"...&%.....+###@@@@@###+.........",
"..**&.%%.+$###@@@@@###$+........",
"...**.&*.+##@@@@@@@@@##+%%......",
"......*.+$#@@@@@@@@@@@#$+&%..%%.",
"........+$@@@@@@@@@@@@@$+*&.&%..",
"........+#@@@@@@@@@@@@@#+**.&**.",
"........+@@@@@#$$$#@@@@@+...**..",
"........+#@$#@+#@#+@#$@#+.......",
".........+#++$#@@@#$++#+%%......",
"........++$+++$@@@$+++$++.......",
"........+##$+++++++++$##+*......",
"........+@$$+*.....%+$$@+.......",
".........+++.........+++........",
"................................"};
