/* XPM */
static char * C:\Users\Dell_Fine\Desktop\img\tree_b_xpm[] = {
"32 32 425 2",
"  	c None",
". 	c #83DC6E",
"+ 	c #74C767",
"@ 	c #519759",
"# 	c #317150",
"$ 	c #7FD76C",
"% 	c #78CD69",
"& 	c #75C867",
"* 	c #67B662",
"= 	c #489257",
"- 	c #2E7D54",
"; 	c #2F8558",
"> 	c #2F895A",
", 	c #2E7550",
"' 	c #2E6C4C",
") 	c #488952",
"! 	c #67B460",
"~ 	c #74C667",
"{ 	c #79CD69",
"] 	c #80D86D",
"^ 	c #61AD5F",
"/ 	c #509659",
"( 	c #489258",
"_ 	c #358B57",
": 	c #28925C",
"< 	c #2AA365",
"[ 	c #2BAB6A",
"} 	c #287D51",
"| 	c #296847",
"1 	c #376E49",
"2 	c #498A53",
"3 	c #75C766",
"4 	c #509356",
"5 	c #2E6D4C",
"6 	c #2E7450",
"7 	c #2F8056",
"8 	c #318D5D",
"9 	c #2F9560",
"0 	c #299960",
"a 	c #27A666",
"b 	c #2BB971",
"c 	c #2DC277",
"d 	c #26955D",
"e 	c #298B58",
"f 	c #2D8A59",
"g 	c #31905E",
"h 	c #489157",
"i 	c #74C464",
"j 	c #4D8B4F",
"k 	c #2C9961",
"l 	c #32B471",
"m 	c #32BC75",
"n 	c #2CB56F",
"o 	c #31C77B",
"p 	c #34CF80",
"q 	c #2BB46E",
"r 	c #30BA73",
"s 	c #34BF77",
"t 	c #35C078",
"u 	c #2B9961",
"v 	c #338956",
"w 	c #67B35F",
"x 	c #44874F",
"y 	c #26794E",
"z 	c #28975E",
"A 	c #2DB36F",
"B 	c #34CA7D",
"C 	c #35D081",
"D 	c #30C87B",
"E 	c #2FC579",
"F 	c #32CB7D",
"G 	c #34CE7F",
"H 	c #33CC7E",
"I 	c #33C77B",
"J 	c #31C479",
"K 	c #2FC378",
"L 	c #30C77A",
"M 	c #37D684",
"N 	c #37D584",
"O 	c #2A9A61",
"P 	c #2C8557",
"Q 	c #328653",
"R 	c #2FB771",
"S 	c #36D282",
"T 	c #36D483",
"U 	c #35D181",
"V 	c #2DC276",
"W 	c #2CBA72",
"X 	c #2AAD6B",
"Y 	c #2CB16D",
"Z 	c #31C579",
"` 	c #37D685",
" .	c #30B872",
"..	c #67B762",
"+.	c #489358",
"@.	c #2B8255",
"#.	c #27935C",
"$.	c #2AAD6A",
"%.	c #33C87C",
"&.	c #2BB871",
"*.	c #29B56E",
"=.	c #2CBD73",
"-.	c #2CAE6B",
";.	c #30BD75",
">.	c #348A57",
",.	c #27A766",
"'.	c #2CBB73",
").	c #34CD7F",
"!.	c #29AA69",
"~.	c #30C278",
"{.	c #2CAE6C",
"].	c #2CBB72",
"^.	c #27925C",
"/.	c #2E7952",
"(.	c #278756",
"_.	c #249B5F",
":.	c #27B06B",
"<.	c #30C077",
"[.	c #2BB56F",
"}.	c #27AA68",
"|.	c #25A163",
"1.	c #29B46E",
"2.	c #2CC075",
"3.	c #31CA7C",
"4.	c #278856",
"5.	c #28A264",
"6.	c #269D60",
"7.	c #25A062",
"8.	c #34CC7E",
"9.	c #2BBD73",
"0.	c #2ABC72",
"a.	c #2CBF75",
"b.	c #2CBD74",
"c.	c #30C378",
"d.	c #2FBC74",
"e.	c #29A867",
"f.	c #259B5F",
"g.	c #269F62",
"h.	c #2AA667",
"i.	c #2EB570",
"j.	c #32C67A",
"k.	c #34CF7F",
"l.	c #29B76F",
"m.	c #28B26C",
"n.	c #27AD6A",
"o.	c #25925B",
"p.	c #348853",
"q.	c #499257",
"r.	c #529859",
"s.	c #29AB69",
"t.	c #29A767",
"u.	c #28AC69",
"v.	c #27AF6B",
"w.	c #2D955F",
"x.	c #2E9A62",
"y.	c #26A364",
"z.	c #2ABC73",
"A.	c #28A967",
"B.	c #268353",
"C.	c #45884F",
"D.	c #2E6A4B",
"E.	c #2C744E",
"F.	c #268655",
"G.	c #2BB770",
"H.	c #2BB670",
"I.	c #269E62",
"J.	c #29BB71",
"K.	c #29BA71",
"L.	c #2BAF6B",
"M.	c #2D9760",
"N.	c #2E925E",
"O.	c #2CA265",
"P.	c #34CD7E",
"Q.	c #25A162",
"R.	c #27AB68",
"S.	c #29B66F",
"T.	c #2CBE74",
"U.	c #2BB06C",
"V.	c #278755",
"W.	c #295B41",
"X.	c #276A47",
"Y.	c #258353",
"Z.	c #28A365",
"`.	c #30C177",
" +	c #30C076",
".+	c #2AB76F",
"++	c #30BE75",
"@+	c #299B60",
"#+	c #4E8A4D",
"$+	c #45874D",
"%+	c #328350",
"&+	c #29965E",
"*+	c #32B370",
"=+	c #31B571",
"-+	c #299E63",
";+	c #24985E",
">+	c #26A866",
",+	c #28B36D",
"'+	c #28B870",
")+	c #2ABD73",
"!+	c #2DB26E",
"~+	c #2E915D",
"{+	c #2C8E5B",
"]+	c #2AAC6A",
"^+	c #2DBD74",
"/+	c #33C077",
"(+	c #32B873",
"_+	c #26A464",
":+	c #28A063",
"<+	c #2FB972",
"[+	c #2B9B61",
"}+	c #298053",
"|+	c #2D714E",
"1+	c #73C464",
"2+	c #66B15C",
"3+	c #44874E",
"4+	c #29744D",
"5+	c #308A5B",
"6+	c #2F935F",
"7+	c #28905B",
"8+	c #23915A",
"9+	c #24985D",
"0+	c #31BF76",
"a+	c #2B9E63",
"b+	c #28965E",
"c+	c #28AD6A",
"d+	c #309F66",
"e+	c #309C64",
"f+	c #2BA868",
"g+	c #29B870",
"h+	c #25945C",
"i+	c #289F62",
"j+	c #2B9B62",
"k+	c #2D8758",
"l+	c #2D734E",
"m+	c #2B6446",
"n+	c #295C41",
"o+	c #66B15D",
"p+	c #2F844D",
"q+	c #286B48",
"r+	c #2B7B52",
"s+	c #277F52",
"t+	c #258252",
"u+	c #2FC478",
"v+	c #31C57A",
"w+	c #2FB973",
"x+	c #25975D",
"y+	c #29A365",
"z+	c #2C9F64",
"A+	c #2D8959",
"B+	c #2D8E5C",
"C+	c #2CC176",
"D+	c #269E61",
"E+	c #238E58",
"F+	c #238D57",
"G+	c #278D59",
"H+	c #2C8B5A",
"I+	c #2D7E54",
"J+	c #296445",
"K+	c #26523B",
"L+	c #45884E",
"M+	c #268554",
"N+	c #277E51",
"O+	c #266F49",
"P+	c #286A47",
"Q+	c #2F9661",
"R+	c #32BD76",
"S+	c #2CB26E",
"T+	c #289F63",
"U+	c #268D59",
"V+	c #2C8A59",
"W+	c #2D8759",
"X+	c #298757",
"Y+	c #27965D",
"Z+	c #28AF6B",
"`+	c #238D58",
" @	c #238C57",
".@	c #25965D",
"+@	c #29A465",
"@@	c #2A9A60",
"#@	c #27724B",
"$@	c #266343",
"%@	c #277C50",
"&@	c #278E59",
"*@	c #25975E",
"=@	c #268E59",
"-@	c #28714B",
";@	c #2A6345",
">@	c #31B672",
",@	c #268957",
"'@	c #248C57",
")@	c #258F59",
"!@	c #26A665",
"~@	c #27A163",
"{@	c #2AA767",
"]@	c #28724B",
"^@	c #285D42",
"/@	c #2C714D",
"(@	c #29A466",
"_@	c #29A164",
":@	c #2D8155",
"<@	c #2D724E",
"[@	c #297F53",
"}@	c #299E62",
"|@	c #2D8658",
"1@	c #2B7F53",
"2@	c #268856",
"3@	c #296947",
"4@	c #25774C",
"5@	c #259059",
"6@	c #2B9A61",
"7@	c #2D965F",
"8@	c #4C884C",
"9@	c #46814C",
"0@	c #38734B",
"a@	c #2E8055",
"b@	c #2C9D63",
"c@	c #2D9E64",
"d@	c #308458",
"e@	c #2E7E55",
"f@	c #23925A",
"g@	c #268956",
"h@	c #2B7F54",
"i@	c #2C7D53",
"j@	c #298355",
"k@	c #298455",
"l@	c #2C744F",
"m@	c #277F51",
"n@	c #248D58",
"o@	c #2E7A52",
"p@	c #30724B",
"q@	c #327E4B",
"r@	c #66B05C",
"s@	c #2B6A49",
"t@	c #2E7F55",
"u@	c #308358",
"v@	c #317953",
"w@	c #2F8658",
"x@	c #26A867",
"y@	c #278655",
"z@	c #317853",
"A@	c #2E7F54",
"B@	c #2B6949",
"C@	c #73C463",
"D@	c #317050",
"E@	c #26A063",
"F@	c #298857",
"G@	c #2A8254",
"H@	c #2F7752",
"I@	c #467D48",
"J@	c #68B15A",
"K@	c #74C564",
"L@	c #4D894C",
"M@	c #2E694B",
"N@	c #317753",
"O@	c #2CA064",
"P@	c #307350",
"Q@	c #467F48",
"R@	c #76C865",
"S@	c #599B52",
"T@	c #3D7446",
"U@	c #326B49",
"V@	c #2F6C4C",
"W@	c #30704F",
"X@	c #2F8257",
"Y@	c #2A8154",
"Z@	c #259F62",
"`@	c #27A465",
" #	c #2F8256",
".#	c #7CD068",
"+#	c #6CB75D",
"@#	c #579851",
"##	c #2B6245",
"$#	c #2F734F",
"%#	c #2A774E",
"&#	c #278B57",
"*#	c #2A774F",
"=#	c #2F724F",
"-#	c #80D76B",
";#	c #79CB65",
">#	c #6AB45B",
",#	c #53914E",
"'#	c #447E4A",
")#	c #45844F",
"!#	c #428352",
"~#	c #377750",
"{#	c #2C6246",
"]#	c #2B6246",
"^#	c #2F7751",
"/#	c #2A8255",
"(#	c #2AA265",
"_#	c #2F6B4C",
":#	c #31744F",
"<#	c #348152",
"[#	c #82DA6D",
"}#	c #78CA65",
"|#	c #6AB55B",
"1#	c #63A957",
"2#	c #63AB58",
"3#	c #599F57",
"4#	c #306F4F",
"5#	c #306E4E",
"6#	c #307B4F",
"7#	c #519352",
"8#	c #599B51",
"9#	c #7FD66B",
"0#	c #75C562",
"a#	c #74C461",
"b#	c #6BB85E",
"c#	c #569C58",
"d#	c #358753",
"e#	c #307E4E",
"f#	c #478953",
"g#	c #428251",
"h#	c #4F9053",
"i#	c #61A756",
"j#	c #7FD56A",
"k#	c #78CB66",
"l#	c #5A9D53",
"m#	c #5A9C52",
"n#	c #63AC5A",
"o#	c #7ED46A",
"p#	c #74C562",
"q#	c #6FBB5D",
"r#	c #6FBB5C",
". . . . . . . . . + @ # # # # # # # # # # @ + . . . . . . . . . ",
". . . $ % + + & + * = - ; > > > > ; - , ' ) ! ~ & { ] . . . . . ",
". . . % ^ @ / @ @ ( _ : < [ [ [ [ < : } | 1 2 / @ ^ % . . . . . ",
". . . 3 4 5 6 7 8 9 0 a b c c c c b a d e f g 8 7 h * { ] . . . ",
". . . i j | } k l m n b o p p p p o b q r s t l u v = ^ { . . . ",
". ] { w x y z A B C D E F p G H I J K L C M N B A O P ( * { ] . ",
". { ^ h Q z R B S T U F E c V W X Y Z U T ` M S B  .O v h ^ { . ",
"+ ..+.@.#.$.%.N ` T U o &.*.=.W X -.;.I H C T M N %.$.#.@.+...+ ",
"@ ( >.#.,.'.).M N U L &.a !.~.H %.;.{.$.W L C N M ).].,.^.>.( @ ",
"# /.(._.:.c p S B <.[.}.|.X %.M M B A !.1.2.3.U T p V :._.4./.# ",
"# /.(._.:.c p B A 5.6.7.}.W 8.M ` S B ~.9.0.a.L C p c :._.(./.# ",
"# /.(._.:.b.c.d.e.f._.g.h.i.j.U T N N k.V l.m.b o 3.2.n.o.p.q.r.",
"# /.(.f.:.*.s.t.u.:.v.h.w.x.i.L U N M p V m.y.a &.2.z.A.B.C.w + ",
"D.E.F.g.G.H.I.f.:.J.K.L.M.N.O.i.j.U T P.].}.7.Q.R.S.T.U.V.C.w + ",
"W.X.Y.Z.`. +5._.v.J.J..+L.O.N.x.i.L U %.X |.}.}.Q.s.~.++@+p.q.r.",
"#+$+%+&+*+=+-+;+>+,+'+)+2.!+~+{+]+^+/+(+h._+m.v.f.:+<+ .[+}+|+D.",
"1+2+3+4+5+6+7+8+9+_+,+2.3.0+a+b+c+Y d+e+f+,+g+:.f.h+i+j+k+l+m+n+",
"i o+p+q+E.r+s+t+F.0 n u+v+w+i+x+y+z+A+B+]+)+C+H.D+E+F+G+H+I+J+K+",
"#+L+%+Y.M+N+O+P+E.Q+R+v+S+T+h+U+V+W+X+Y+Z+2.3.<.5.`+ @.@+@@@#@K+",
"K+$@%@&@*@=@-@;@|+6+>@ .j+,@'@(./., } )@!@G.`. .[+U+.@~@{@@@]@K+",
"K+^@/@H+(@_@:@<@[@7+}@[+|@1@2@(./.5 3@4@5@D+Z.6@k+H++@{@7@I+J+K+",
"8@9@0@a@b@c@d@e@: ;+f@g@h@i@j@k@i@l@q+O+m@g@n@(.o@d@c@b@a@p@q@8@",
"i r@9@s@t@u@v@w@< x@9+'@2@j@i@i@k@F.Y.m@r+1@2@y@/.z@u@A@B@q@r@i ",
". C@8@W.D.D@# u@c@{@E@x+U+k@i@h@,@E+E+G+H+A+F@G@H@# # D.W.I@J@. ",
". K@L@W.M@D@# N@d@w.{@+@H+i@j@g@n@E+E+x++@O@A+H@P@# D@M@W.Q@K@. ",
". R@S@T@U@V@W@D@# X@[+[+X@H@Y@g@n@f@;+Z@`@[+ ## D@W@V@U@T@S@R@. ",
". .#+#@#T@##V@# D@$#%#%#$#P@H@h@,@;+x@`@&#*#=## # V@##T@@#+#.#. ",
". -#;#>#,#'#)#!#~#V@{#]#V@# # ^#/#: (#[+*#{#_#:#<#)#'#,#>#;#-#. ",
". [#-#}#|#1#2#3#!#4#_#_#4## # P@H@e@w@ #=#_#5#6#7#8#1#|#}#-#[#. ",
". . . 9#;#0#a#b#c#d#e#f#g#g#f#f#f#f#f#d#d#g#f#h#i#a#0#;#9#. . . ",
". . . [#-#j#j#k#b#l#m#n#n#n#n#n#n#n#n#n#n#n#n#b#k#j#j#-#[#. . . ",
". . . . . . . o#p#q#r#q#q#q#q#q#q#q#q#q#q#r#q#p#o#. . . . . . . "};
