/* XPM */
static char *result[] = {
/* columns rows colors chars-per-pixel */
"32 32 5 1 ",
"  c #38BA58",
". c #40BC5B",
"X c #4CD46D",
"o c #76C663",
"O c #83DC6E",
/* pixels */
"OOOOOOOOOOOOOOOOOOOOOOOOOOOOOOOO",
"OOOOOOOOOOOOOOOOOOOOOOOOOOOOOOOO",
"OOOOOOOOOOOOOOOOOOOOOOOOOOOOOOOO",
"OOOOOOOOOOOOOOOOOOOOOOOOOOOOOOOO",
"OOOOOOOOOOOOOOOOOOOOOOOOOOOOOOOO",
"OOOOOOOOOOOOOOOOOOOOOOOOOOOOOOOO",
"OOOOOOOOOOOOOOOOOOOOOXXOOOOOOOOO",
"OOOOOOOOOOOOOOOOOOOOOO XOOXXOOOO",
"OOOOOOOOOOOOOOOOOOOOOoo O XOOOOO",
"OOOOOOOOOOOOOOOOOOOOOOooO ooOOOO",
"OOOOOOOOOOOOOOOOOOOOOO .OooOOOOO",
"OOOOOOOOOOOOOOOOOOOOOXXoOOOOOOOO",
"OOOOOOOOOOOOOOOOOOOOOOOOOOOOOOOO",
"OOOOOOOOOOOOOOOOOOOOOOOOOOOOOOOO",
"OOOOOOOOOOOOOOOOOOOOOOOOOOOOOOOO",
"OOOOOOOOOOOOOOOOOOOOOOOOOOOOOOOO",
"OOOOOOOOOOOOOOOOOOOOOOOOOOOOOOOO",
"OOXXOOOOOOOOOOOOOOOOOOOOOOOOOOOO",
"OOO XOOOOOOOOOOOOOOOOOOOOOOOOOOO",
"OOoo OXXOOOOOOOOOOOOOOOOOOOOOOOO",
"OOOooO oOOOOOOOOOOOOOOOOXXOOOOOO",
"OOOOOOoOOOOOOOOOOOOOOOOOO XOOXXO",
"OOOOOOOOOOOOOOOOOOOOOOOOoo O XOO",
"OOOOOOOOOOOOOOOOOOOOOOOOOooO ooO",
"OOOOOOOOOOOOOOOOOOOOOOOOOOOOooOO",
"OOOOOOOOOXOOOOOOOOOOOOOOOOOOOOOO",
"OOOOOOOOOXXOOXXOOOOOOOOOXXOOOOOO",
"OOOOOOOOOo O XOOOOOOOOO XOOOOOOO",
"OOOOOOOOOOoO ooOOOOO  O ooOOOOOO",
"OOOOOOOOOX OooOOOOOXXoOooOOOOOOO",
"OOOOOOOOOooOOOOOOOOOOOOOOOOOOOOO",
"OOOOOOOOOOOOOOOOOOOOOOOOOOOOOOOO"
};
