/* XPM */
static char * C:\Users\Dell_Fine\Desktop\img\bun_down_xpm[] = {
"32 32 13 1",
" 	c None",
".	c #83DC6E",
"+	c #3A3737",
"@	c #B7B3B2",
"#	c #EFE9E7",
"$	c #BC8B6D",
"%	c #D6B39D",
"&	c #827C7C",
"*	c #4CD46D",
"=	c #38BA58",
"-	c #C49172",
";	c #76C663",
">	c #CDAE67",
"................................",
"................................",
"................................",
".......+++.............+++......",
".......+@#+...........+#@+......",
".......+###+.........+###+......",
".......+#$#@+..+++..+@#$#+......",
".......+#%@#&++@#@++&#@%#+**....",
"........+%%%#&+&&&+&#%%%+=*.....",
"........+-%%#@&+++&@#%%-+=;;....",
".........+%%@#+@@@+#@%%+.;;.....",
"........+&+%@#@###@#@%+&+.......",
"........+@@+@#######@+@@+.......",
".......+&#@@&@#####@&@@#&+......",
".......+@#@@&+@###@+&@@#@+......",
".......+##@&@+@@@@@+@&@##+......",
".......+##+@#&@###@&#@+##+......",
"..**...+##+##@#####@##+##+......",
"...=*..+@#+@##+>>>+##@+#@+......",
"..;;=.**+##+###+++###+##+.......",
"...;;.=++&##+&@@+@@&+##&++......",
"......;+@@&##+++@+++##&@@+*..**.",
".......+##+@#@#####@#@+##+=.=*..",
"........++++#&+@#@+&#++++;;.=;;.",
"..........++@#&+++&#@++.....;;..",
".........*.+@#@&+&@#@+..........",
".........*+####+++####+.**......",
".........;+####+.+####+=*.......",
"..........;++++...++++.=;;......",
".........*=.;;.....**;.;;.......",
".........;;.....................",
"................................"};
