/* XPM */
static char * C:\Users\Dell_Fine\Desktop\img\bun_left_xpm[] = {
"32 32 12 1",
" 	c None",
".	c #83DC6E",
"+	c #3A3737",
"@	c #EFE9E7",
"#	c #827C7C",
"$	c #B7B3B2",
"%	c #4CD46D",
"&	c #D6B39D",
"*	c #38BA58",
"=	c #76C663",
"-	c #40BC5B",
";	c #CDAE67",
"................................",
"................................",
"................................",
"............++..+++.............",
"...........+@+.+#$+.............",
"..........+#@++$@@+.............",
"..........+@@++@@@+..%%.........",
".........+#@@+$@&@+...*%..%%....",
".........+$@$#@&&@+..==*.*%.....",
".........+$@+$@&&+....==.*==....",
"........+++#+@&&&+....*-.==.....",
".......+@@$$#@&&.+...%%=........",
"......+$@@@@#@&.+...............",
".....+#@@@@@@@&$+++++...........",
".....+$@@+@$@@@#$@@$#++.........",
"....+$@@$++@@@$#@@@@@@$+........",
"...+#@@@@@@@@@@@@@@@@@@$+.......",
"..%+$@@@@@@@@$@@@@@@@@@@#+......",
"...+;;+@@@@@$#@@@@@@@@@@$+......",
"..==+#@@@@$+#@@@@@@@@@@@@#+.....",
"...==++#$#+$@@@@@@@@@@@@@$+.....",
"......=+++$@@@@@@@@@@@@@@#@+.%%.",
".........+$@@@@$@@@@@@@@@$@+*%..",
".........+#$@@@$$@@@@@@@@$$+*==.",
"..........+#$$$$+$@@@@$@@#+.==..",
".........%+++#$$#+#$$+$@$#+.....",
".........%+#++$$$++++#$$$+......",
".........+$+#@@@$++#@@$$#+......",
".........+$+@@@@+.+$@@@++=......",
".........%++++++...+++++=.......",
".........==.....................",
"................................"};
