/* XPM */
static char * C:\Users\Dell_Fine\Desktop\img\bun_right_xpm[] = {
"32 32 12 1",
" 	c None",
".	c #83DC6E",
"+	c #3A3737",
"@	c #B7B3B2",
"#	c #827C7C",
"$	c #EFE9E7",
"%	c #4CD46D",
"&	c #D6B39D",
"*	c #38BA58",
"=	c #76C663",
"-	c #BC8B6D",
";	c #CDAE67",
"................................",
"................................",
"................................",
".............+++..++............",
".............+@#+.+$+...........",
".............+$$@++$#+..........",
".............+$$$++$$+%.........",
".............+$&$@+$$#+%..%%....",
".............+$&&$#@$@+*.*%.....",
"..............+&&$@+$@+=.*==....",
"..............+&&&$+#+++.==.....",
"..............+-&&$#@@$$+.......",
"...............+-&$#$$$$@+......",
"...........+++++@&$$$$$$$#+.....",
".........++#@$$@#$$$@$+$$@+.....",
"........+@$$$$$$#@$$$++@$$@+....",
".......+@$$$$$$$$$$$$$$$$$$#+...",
"..%%..+#$$$$$$$$$$@$$$$$$$$@+...",
"...*%.+@$$$$$$$$$$#@$$$$$+;;+...",
"..==*+#$$$$$$$$$$$$#+@$$$$#+....",
"...==+@$$$$$$$$$$$$$@+#@#++.....",
"....+$#$$$$$$$$$$$$$$@+++*%..%%.",
"....+$@$$$$$$$$$@$$$$@+.==*.*%..",
"....+@@$$$$$$$$@@$$$@#+..==.*==.",
".....+#$$@$$$$@+@@@@#+......==..",
".....+#@$@+@@#+#@@#+++..........",
"......+@@@#++++@@@++#+..%%......",
"......+#@@$$#++@$$$#+@+*%.......",
".......++$$$@+=+$$$$+@+*==......",
"........+++++=..++++++.==.......",
".........==.....................",
"................................"};
