/* XPM */
static char * C:\Users\Dell_Fine\Desktop\img\exit_b_xpm[] = {
"32 32 248 2",
"  	c None",
". 	c #83DC6E",
"+ 	c #4CD46D",
"@ 	c #38BA58",
"# 	c #76C663",
"$ 	c #40BC5B",
"% 	c #85DA70",
"& 	c #81AF62",
"* 	c #79A455",
"= 	c #7EAC5C",
"- 	c #80BC62",
"; 	c #8BD074",
"> 	c #86DD71",
", 	c #85D46F",
"' 	c #89CD71",
") 	c #7DC161",
"! 	c #84C369",
"~ 	c #7AB459",
"{ 	c #8BAA60",
"] 	c #80AC5D",
"^ 	c #719A47",
"/ 	c #638C26",
"( 	c #628B25",
"_ 	c #74994A",
": 	c #81B763",
"< 	c #84CB6B",
"[ 	c #91DD7C",
"} 	c #8DCB73",
"| 	c #638C27",
"1 	c #6A822A",
"2 	c #7F6B35",
"3 	c #638725",
"4 	c #6A872A",
"5 	c #6C862A",
"6 	c #6A882D",
"7 	c #88A565",
"8 	c #77A353",
"9 	c #88A867",
"0 	c #84A665",
"a 	c #7DA859",
"b 	c #82C267",
"c 	c #89DD74",
"d 	c #81B863",
"e 	c #678928",
"f 	c #608923",
"g 	c #638A25",
"h 	c #587E1F",
"i 	c #5B7E21",
"j 	c #598021",
"k 	c #587A1E",
"l 	c #59801F",
"m 	c #5C8422",
"n 	c #5C8421",
"o 	c #7E6333",
"p 	c #805836",
"q 	c #608824",
"r 	c #628724",
"s 	c #618925",
"t 	c #6D842D",
"u 	c #737F30",
"v 	c #668927",
"w 	c #7C9D50",
"x 	c #88D672",
"y 	c #8AD974",
"z 	c #85C66A",
"A 	c #709741",
"B 	c #787231",
"C 	c #668627",
"D 	c #5D8423",
"E 	c #556317",
"F 	c #5A4211",
"G 	c #6B4110",
"H 	c #6D3E10",
"I 	c #64240A",
"J 	c #662B09",
"K 	c #652209",
"L 	c #672207",
"M 	c #6A2307",
"N 	c #6F270A",
"O 	c #6E370F",
"P 	c #65430F",
"Q 	c #603610",
"R 	c #5B6218",
"S 	c #58751C",
"T 	c #5F8823",
"U 	c #648826",
"V 	c #7B6C32",
"W 	c #776C30",
"X 	c #72702C",
"Y 	c #747B2F",
"Z 	c #729B48",
"` 	c #88DA72",
" .	c #8FD67A",
"..	c #699234",
"+.	c #5A8220",
"@.	c #626319",
"#.	c #6F2E0D",
"$.	c #692208",
"%.	c #621E08",
"&.	c #6F230A",
"*.	c #71240A",
"=.	c #651E09",
"-.	c #692108",
";.	c #661F08",
">.	c #682008",
",.	c #6C2108",
"'.	c #71240B",
").	c #6E2309",
"!.	c #631E09",
"~.	c #682108",
"{.	c #63250B",
"].	c #614C12",
"^.	c #5C721D",
"/.	c #5D8623",
"(.	c #608825",
"_.	c #628B26",
":.	c #618A24",
"<.	c #80C565",
"[.	c #82C367",
"}.	c #587A20",
"|.	c #635415",
"1.	c #702409",
"2.	c #6A2208",
"3.	c #5C1B07",
"4.	c #651F09",
"5.	c #601D08",
"6.	c #531706",
"7.	c #541806",
"8.	c #521606",
"9.	c #561806",
"0.	c #581A06",
"a.	c #5C1B08",
"b.	c #591A07",
"c.	c #581906",
"d.	c #571907",
"e.	c #651F08",
"f.	c #5A6015",
"g.	c #598020",
"h.	c #618A25",
"i.	c #628A25",
"j.	c #6D923D",
"k.	c #8ED477",
"l.	c #93D47C",
"m.	c #6C802A",
"n.	c #91573F",
"o.	c #8C5C3C",
"p.	c #637826",
"q.	c #646A1B",
"r.	c #665414",
"s.	c #5F1E07",
"t.	c #4A1405",
"u.	c #4C1405",
"v.	c #4C1406",
"w.	c #4C1506",
"x.	c #491304",
"y.	c #4B1305",
"z.	c #4C370C",
"A.	c #525A17",
"B.	c #514A0E",
"C.	c #4E260A",
"D.	c #592E0D",
"E.	c #614A10",
"F.	c #5F681D",
"G.	c #76702F",
"H.	c #876C3B",
"I.	c #72802D",
"J.	c #78A954",
"K.	c #8BDC77",
"L.	c #81B066",
"M.	c #69842F",
"N.	c #7A7031",
"O.	c #6A772A",
"P.	c #576B1A",
"Q.	c #403B0C",
"R.	c #4B1307",
"S.	c #4A1306",
"T.	c #431005",
"U.	c #410F04",
"V.	c #3D0F06",
"W.	c #473E0F",
"X.	c #54791D",
"Y.	c #5F8723",
"Z.	c #5B8422",
"`.	c #5C8323",
" +	c #5B8321",
".+	c #608723",
"++	c #677F27",
"@+	c #816336",
"#+	c #846137",
"$+	c #8D7A53",
"%+	c #82CF6A",
"&+	c #81AF65",
"*+	c #658826",
"=+	c #608524",
"-+	c #5F8824",
";+	c #567B1F",
">+	c #54751C",
",+	c #536A1A",
"'+	c #51691A",
")+	c #55761D",
"!+	c #577920",
"~+	c #577A21",
"{+	c #537A1D",
"]+	c #5A8120",
"^+	c #638A26",
"/+	c #797531",
"(+	c #8D593B",
"_+	c #6B7F29",
":+	c #759D4D",
"<+	c #8ABE6E",
"[+	c #67C067",
"}+	c #65CA6F",
"|+	c #93DC7E",
"1+	c #84DC6F",
"2+	c #88D772",
"3+	c #7C9851",
"4+	c #668826",
"5+	c #618924",
"6+	c #618824",
"7+	c #69832A",
"8+	c #648B27",
"9+	c #70792D",
"0+	c #6E802C",
"a+	c #8BB76C",
"b+	c #84DA6F",
"c+	c #8BDD77",
"d+	c #8ACC71",
"e+	c #85BD68",
"f+	c #80AA5D",
"g+	c #729442",
"h+	c #5E8623",
"i+	c #638B25",
"j+	c #699236",
"k+	c #8BC872",
"l+	c #8DDE79",
"m+	c #8ED476",
"n+	c #86C36B",
"o+	c #80B261",
"p+	c #7B9F56",
"q+	c #648B26",
"r+	c #638C25",
"s+	c #749749",
"t+	c #80B75F",
"u+	c #89D873",
"v+	c #86D06F",
"w+	c #8BD275",
"x+	c #83D26C",
"y+	c #8DDE78",
". . . . . . . . . . . . . . . . . . . . . . . . . . . . . . . . ",
". . . . . . . . . . . . . . . . . . . . . . . . . . . . . . . . ",
". . . . . . . . . . . . . . . . . . . . . . . . . . . . . . . . ",
". . . . . . . . . . . . . . . . . . . . . . . . . . . . . . . . ",
". . . . . . . . . . . . . . . . . . . . . . . . . . . . . . . . ",
". . . . . . . . . . . . . . . . . . . . . . . . . . . . . . . . ",
". . . . . . . . . . . . . . . . . . . . . + + . . . . . . . . . ",
". . . . . . . . . . . . . . . . . . . . . . @ + . . + + . . . . ",
". . . . . . . . . . . . . . . . . . . . . # # @ . @ + . . . . . ",
". . . . . . . . . . . . . . . . . . . . . . # # . @ # # . . . . ",
". . . . . . . . . . . . . . . . . . . . . . @ $ . # # . . . . . ",
". . . . . . . . . . . . % & * = - ; > . . + + # . . . . . . . . ",
". . . . . , ' ) ! ~ { ] ^ / / / / ( _ : < [ . . . . . . . . . . ",
". . . . } | | / / 1 2 3 / / ( / ( ( 4 5 / 6 7 8 9 0 a b c . . . ",
". . . . d e / / f ( g h i j k l m n o p q r s q / t u v w x . . ",
". . y z A B C D E F G H I J K L M N O P Q R S T U V W X Y Z ` . ",
".  .../ | +.@.#.$.%.&.*.=.-.;.>.,.'.).-.!.~.{.].^./.(._._.:.<.. ",
". [.| v }.|.1.*.2.3.4.5.6.7.8.9.0.a.b.c.d.e.e.-.~.f.g.h.i.j.k.. ",
". l.m.n.o.p.q.r.s.t.d.0.u.v.w.x.y.z.A.B.C.7.D.E.F.G.H.I.J.K.. . ",
". . L.M.N.O.q ( P.Q.R.S.T.U.V.U.W.X.i.Y.Z.`. +.+++@+#+$+%+. . . ",
". . . &+*+=+ +-+(.;+>+,+'+)+!+~+{+]+^+/+(+_+:+<+[+}+|+1+. . . . ",
". . . 2+3+4+( _.5+_.( i./ / i.6+/ 7+8+9+0+a+b+. . @ + . . + + . ",
". . . . c+d+e+f+g+h+m / / h./ i+/ / :.j+k+1+. . # # @ . @ + . . ",
". . . . . . . . l+m+n+o+p+q+r+/ / s+t+u+. . . . . # # . @ # # . ",
". . . . . . . . . . . . . [ v+w+x+y+. . . . . . . . . . # # . . ",
". . . . . . . . . + . . . . . . . . . . . . . . . . . . . . . . ",
". . . . . . . . . + + . . + + . . . . . . . . . + + . . . . . . ",
". . . . . . . . . # @ . @ + . . . . . . . . . @ + . . . . . . . ",
". . . . . . . . . . # . @ # # . . . . . @ @ . @ # # . . . . . . ",
". . . . . . . . . + @ . # # . . . . . + + # . # # . . . . . . . ",
". . . . . . . . . # # . . . . . . . . . . . . . . . . . . . . . ",
". . . . . . . . . . . . . . . . . . . . . . . . . . . . . . . . "};
