/* XPM */
static char *result[] = {
/* columns rows colors chars-per-pixel */
"32 32 241 2 ",
"   c #171514",
".  c #181716",
"X  c #1B1817",
"o  c #23201F",
"O  c #232120",
"+  c #232220",
"@  c #262523",
"#  c #272523",
"$  c #302E2C",
"%  c #312F2E",
"&  c #353331",
"*  c #3E3B39",
"=  c #3E3D3C",
"-  c #4A241C",
";  c #42403E",
":  c #43413F",
">  c #44413F",
",  c #45413F",
"<  c #362E42",
"1  c #483E52",
"2  c #424140",
"3  c #454240",
"4  c #4B4846",
"5  c #4E4A46",
"6  c #4D4C49",
"7  c #524440",
"8  c #504C48",
"9  c #54514E",
"0  c #57534F",
"q  c #524B57",
"w  c #52465C",
"e  c #565350",
"r  c #625F5B",
"t  c #625F5C",
"y  c #64615E",
"u  c #5C5461",
"i  c #645A6A",
"p  c #6C6966",
"a  c #6F6B68",
"s  c #6F6C69",
"d  c #736D69",
"f  c #726E6A",
"g  c #756F69",
"h  c #7B7570",
"j  c #7F7B75",
"k  c #79747A",
"l  c #807D7A",
"z  c #DC7059",
"x  c #DA725D",
"c  c #DD725C",
"v  c #DC745E",
"b  c #DD755F",
"n  c #DD765F",
"m  c #DD7660",
"M  c #DE7862",
"N  c #DE7A66",
"B  c #8A837E",
"V  c #E08370",
"C  c #E08675",
"Z  c #807980",
"A  c #847C85",
"S  c #8B8580",
"D  c #898582",
"F  c #8A8784",
"G  c #8F8982",
"H  c #8C8884",
"J  c #918B88",
"K  c #918C88",
"L  c #998F8B",
"P  c #989490",
"I  c #9E9995",
"U  c #9C9996",
"Y  c #9E9A96",
"T  c #9E9B96",
"R  c #9D9799",
"E  c #A39C95",
"W  c #A49D96",
"Q  c #A09C99",
"!  c #A59C99",
"~  c #A29B9D",
"^  c #A9A09C",
"/  c #AEA69E",
"(  c #AEA69F",
")  c #B2A09B",
"_  c #A69EA1",
"`  c #AAA5A0",
"'  c #AEA9A4",
"]  c #AEAAA5",
"[  c #B1A8A4",
"{  c #B1ACA7",
"}  c #B2AFAA",
"|  c #B3AFAA",
" . c #B3B0AC",
".. c #BDB4AE",
"X. c #BBB5B0",
"o. c #BDB8B1",
"O. c #BEBBB7",
"+. c #E29180",
"@. c #E29383",
"#. c #D4AB9E",
"$. c #E7AB9E",
"%. c #E8AA9C",
"&. c #D6B5AC",
"*. c #C2BAB1",
"=. c #C3BAB1",
"-. c #C0BBB5",
";. c #C4BBB6",
":. c #C1BCB7",
">. c #C2BDB8",
",. c #E9B0A4",
"<. c #E9B1A5",
"1. c #EAB2A7",
"2. c #ECBDB1",
"3. c #EDBEB3",
"4. c #C9C0B7",
"5. c #C6C2BD",
"6. c #CEC4BA",
"7. c #CFC5BB",
"8. c #C8C4BF",
"9. c #D0C5BB",
"0. c #D0C6BC",
"q. c #D1C7BD",
"w. c #D1C7BE",
"e. c #DAC4BA",
"r. c #D1C8BE",
"t. c #D2C8BF",
"y. c #D2C9BF",
"u. c #EDC0B5",
"i. c #EEC0B5",
"p. c #EEC3B9",
"a. c #EFC5BA",
"s. c #EFC7BD",
"d. c #F0C8BD",
"f. c #CBC7C3",
"g. c #CBC5C4",
"h. c #CFC9C3",
"j. c #CBC9C5",
"k. c #CCC9C5",
"l. c #CEC8C6",
"z. c #D3CAC0",
"x. c #D3CAC1",
"c. c #D4CBC1",
"v. c #D6CCC3",
"b. c #D6CDC3",
"n. c #D2CBC5",
"m. c #D3CBC5",
"M. c #D3CCC5",
"N. c #D7CEC5",
"B. c #D7CEC6",
"V. c #D7CFC6",
"C. c #DCCAC1",
"Z. c #D3CEC8",
"A. c #D5CECC",
"S. c #D8D0C7",
"D. c #D5D1CD",
"F. c #D8D0C8",
"G. c #D9D1C8",
"H. c #D9D3CB",
"J. c #DAD3CA",
"K. c #DBD3CB",
"L. c #DBD4CB",
"P. c #DAD3CE",
"I. c #DDD4CC",
"U. c #DCD5CE",
"Y. c #DDD7D1",
"T. c #DED6D3",
"R. c #DFD9D3",
"E. c #EDCAC0",
"W. c #ECCAC1",
"Q. c #F1CFC5",
"!. c #E0D4CE",
"~. c #E0D6CE",
"^. c #E1D7CF",
"/. c #E1D8CF",
"(. c #F3D5CC",
"). c #E0D9D1",
"_. c #E2D8D0",
"`. c #E2DDD5",
"'. c #E4DDD7",
"]. c #E5DDD8",
"[. c #E6DDD9",
"{. c #E4DFD8",
"}. c #E6DFD9",
"|. c #E7DEDA",
" X c #F4D9D0",
".X c #F0DCD4",
"XX c #F6DDD4",
"oX c #E5E0D9",
"OX c #E7E2DB",
"+X c #E8E0DA",
"@X c #E8E1DA",
"#X c #EBE4DD",
"$X c #E8E4DE",
"%X c #E9E4DE",
"&X c #EAE5DF",
"*X c #EAE6DF",
"=X c #EEE5DF",
"-X c #F7E2DA",
";X c #F7E3DB",
":X c #F8E5DD",
">X c #ECE7E1",
",X c #ECE8E2",
"<X c #EDE9E3",
"1X c #EEEAE4",
"2X c #EEEBE5",
"3X c #EFEBE6",
"4X c #EFECE6",
"5X c #EFEDE8",
"6X c #F1EAE4",
"7X c #F3EAE4",
"8X c #F3EBE4",
"9X c #F3EAE5",
"0X c #F4EBE4",
"qX c #F4ECE5",
"wX c #F5EDE6",
"eX c #F8E8E0",
"rX c #FAEAE2",
"tX c #FAEDE5",
"yX c #FBEDE5",
"uX c #FBEDE6",
"iX c #FBEEE7",
"pX c #F0EDE8",
"aX c #F1EDE8",
"sX c #F1EEE9",
"dX c #F2EFE9",
"fX c #F2EFEA",
"gX c #F3EFEA",
"hX c #F3F0EB",
"jX c #F7F1EC",
"kX c #F7F2ED",
"lX c #F9F0E9",
"zX c #F9F1EA",
"xX c #FAF1EA",
"cX c #FBF1EA",
"vX c #FBF2EB",
"bX c #FCF2EB",
"nX c #FCF3EC",
"mX c #FCF4ED",
"MX c #FDF4ED",
"NX c #FDF5EE",
"BX c None",
/* pixels */
"BXBXBXBXBXBXBXBXBXBXBXBXBXBXBXBXBXBXBXBXBXBXBXBXBXBXBXBXBXBXBXBX",
"BXBXBX-.oXoXf.BXBXBXBXBXBXBXBXBXBXBXBXBXBXBXBXBXBXBX} oXoXZ.O BX",
"BXBXBXm.nXuX!.o BXBXBXBXBXBXBXBXBXBXBXBXBXBXBXBXBXX ;.yXbX+X@ BX",
"BXBXBXm.cXC @.jXO.BXBXBXBXBXBXBXBXBXBXBXBXBXBXBXU kX$.N ;X+X@ BX",
"BXBXBXm.cXV +.bX:.BXBXBXBXBXBXBXBXBXBXBXBXBXBXBXT mX%.m ;X+X@ BX",
"BXBXBXm.cXV +.bX:.BXBXBXBXBXBXBXBXBXBXBXBXBXBXBXT mX%.m ;X+X@ BX",
"BXBXBXm.cXV +.bX:.BXBXBXBXBXBXBXBXBXBXBXBXBXBXBXT mX%.m ;X+X@ BX",
"BXBXBXm.cXV +.bX:.BXBXBXBXBXBXBXBXBXBXBXBXBXBXBXT mX%.m ;X+X# BX",
"BXBXBXm.bXp.2.3.&.| p BXBXBXBXBXBXBXBXBXBXBX6 { n.mX%.v ) Q . BX",
"BXBXBXM.nXnX-Xb <.NXP BXBXBXBXBXBXBXBXBXBXBXs zXnXmX%.x - BXBXBX",
"BXBXBXl Y 8X-Xb <.mXP BXBXBXBXBXBXBXBXBXBXBXs lX X,.i.E.7 BXBXBX",
"BXBXBXBX% =X-Xb <.mXP BXBXBXBXBXBXBXBXBXBXBXs lXs.c Q.lXe BXBXBX",
"BXBXBXBX% =X-Xb <.mXP BXBXBXBXBXBXBXBXBXBXBXs lXs.c Q.lXe BXBXBX",
"BXBXBXBX$ }..XM 1.mXP BXBXBXBXBXBXBXBXBXBXBXs lXd.n W.6X9 BXBXBX",
"BXBXBXBXBX= d eXtXnXP BXBXBXBXBXBXBXBXBXBXBXs lXiXrXL 2 BXBXBXBX",
"BXBXBXBXBXBXr vXnXnXP BX* 3 3 3 3 3 3 3 ; BXs lXnXmXJ BXBXBXBXBX",
"BXBXBXBXBXBXr vXnXnXP   Y.wXwXwXwXwXwXwX#X> s lXnXmXJ BXBXBXBXBX",
"BXBXBXBXBXBXr vXnXnX` t @XnXnXnXnXnXnXnX0Xf H xXnXmXJ BXBXBXBXBX",
"BXBXBXBXBXBXr vXnXnXnXnXnXnXnXnXnXnXnXnXnXnXnXnXnXmXJ BXBXBXBXBX",
"BXBXBXBXBXBX4 :.P.nXT.g.qXnXnXnXnXnXnXnXlXl.A.vX'.>.a BXBXBXBXBX",
"BXBXBXBXBXBXBXBXI mX_ w |.nXnXnXnXnXnXnX9Xi A zXX.BXBXBXBXBXBXBX",
"BXBXBXBXBXBX: ' h.mX~ 1 [.nXnX:Xu.XXnXnX7Xu Z zXU.] y BXBXBXBXBX",
"BXBXBXBXBXBXr vXnXmXR < ].nXnX(.z a.nXnX7Xq k zXnXMXK BXBXBXBXBX",
"BXBXBXBXBXBX0 ~.^.^...! B.^.^.C.#.e./.^.I.^ [ ~.^._.j BXBXBXBXBX",
"BXBXBXBXBXBX8 6.0.7.7.7.7.7.0.0.7.7.7.7.7.0.0.7.7.9.g BXBXBXBXBX",
"BXBXBXBXBXBX8 6.K.,X,X,X,X%Xw.F.,X,X,X,X*Xt.N.>X,X,XD BXBXBXBXBX",
"BXBXBXBXBXBX5 4.H.sXfXhXsX1Xy.K.sXfXhXdX4Xz.S.aXpX5XF BXBXBXBXBX",
"BXBXBXBXBXBXBX& S c.OXfXG.N.1XOXx.{.hXL.v.<X%Xc.E , + BXBXBXBXBX",
"BXBXBXBXBXBXBXBXh =.R.2XS.V.sX&Xz.`.3XJ.b.pX$X*.G BXBXBXBXBXBXBX",
"BXBXBXBXBXBXBXBXBXBXW r.,XfXhXgXdX).q.&XdXhXD.BXBXBXBXBXBXBXBXBX",
"BXBXBXBXBXBXBXBXBXBXB ( 8.j.j.j.k.o./ 5.j.j. .BXBXBXBXBXBXBXBXBX",
"BXBXBXBXBXBXBXBXBXBXBXBXBXBXBXBXBXBXBXBXBXBXBXBXBXBXBXBXBXBXBXBX"
};
