/* XPM */
static char *result[] = {
/* columns rows colors chars-per-pixel */
"32 32 246 2 ",
"   c #171514",
".  c #181716",
"X  c #1B1817",
"o  c #23201F",
"O  c #232120",
"+  c #232220",
"@  c #262523",
"#  c #272523",
"$  c #302E2C",
"%  c #312F2E",
"&  c #353331",
"*  c #3E3B39",
"=  c #3E3D3C",
"-  c #4A241C",
";  c #42403E",
":  c #43413F",
">  c #44413F",
",  c #45413F",
"<  c #362E42",
"1  c #483E52",
"2  c #424140",
"3  c #454240",
"4  c #4B4846",
"5  c #4E4A46",
"6  c #4D4C49",
"7  c #524440",
"8  c #504C48",
"9  c #54514E",
"0  c #57534F",
"q  c #524B57",
"w  c #52465C",
"e  c #565350",
"r  c #625F5B",
"t  c #625F5C",
"y  c #64615E",
"u  c #5C5461",
"i  c #645A6A",
"p  c #6C6966",
"a  c #6F6B68",
"s  c #6F6C69",
"d  c #736D69",
"f  c #726E6A",
"g  c #756F69",
"h  c #7B7570",
"j  c #7F7B75",
"k  c #79747A",
"l  c #807D7A",
"z  c #DC7059",
"x  c #DA725D",
"c  c #DD725C",
"v  c #DC745E",
"b  c #DD755F",
"n  c #DD765F",
"m  c #DD7660",
"M  c #DE7862",
"N  c #DE7A66",
"B  c #38BA58",
"V  c #5E9E4E",
"C  c #68B057",
"Z  c #4CD46D",
"A  c #76C663",
"S  c #8A837E",
"D  c #E08370",
"F  c #E08675",
"G  c #83DC6E",
"H  c #807980",
"J  c #847C85",
"K  c #8B8580",
"L  c #898582",
"P  c #8A8784",
"I  c #8F8982",
"U  c #8C8884",
"Y  c #918B88",
"T  c #918C88",
"R  c #998F8B",
"E  c #989490",
"W  c #9E9995",
"Q  c #9C9996",
"!  c #9E9A96",
"~  c #9E9B96",
"^  c #9D9799",
"/  c #A39C95",
"(  c #A49D96",
")  c #A09C99",
"_  c #A59C99",
"`  c #A29B9D",
"'  c #A9A09C",
"]  c #AEA69E",
"[  c #AEA69F",
"{  c #B2A09B",
"}  c #A69EA1",
"|  c #AAA5A0",
" . c #AEA9A4",
".. c #AEAAA5",
"X. c #B1A8A4",
"o. c #B1ACA7",
"O. c #B2AFAA",
"+. c #B3AFAA",
"@. c #B3B0AC",
"#. c #BDB4AE",
"$. c #BBB5B0",
"%. c #BDB8B1",
"&. c #BEBBB7",
"*. c #E29180",
"=. c #E29383",
"-. c #D4AB9E",
";. c #E7AB9E",
":. c #E8AA9C",
">. c #D6B5AC",
",. c #C2BAB1",
"<. c #C3BAB1",
"1. c #C0BBB5",
"2. c #C4BBB6",
"3. c #C1BCB7",
"4. c #C2BDB8",
"5. c #E9B0A4",
"6. c #E9B1A5",
"7. c #EAB2A7",
"8. c #ECBDB1",
"9. c #EDBEB3",
"0. c #C9C0B7",
"q. c #C6C2BD",
"w. c #CEC4BA",
"e. c #CFC5BB",
"r. c #C8C4BF",
"t. c #D0C5BB",
"y. c #D0C6BC",
"u. c #D1C7BD",
"i. c #D1C7BE",
"p. c #DAC4BA",
"a. c #D1C8BE",
"s. c #D2C8BF",
"d. c #D2C9BF",
"f. c #EDC0B5",
"g. c #EEC0B5",
"h. c #EEC3B9",
"j. c #EFC5BA",
"k. c #EFC7BD",
"l. c #F0C8BD",
"z. c #CBC7C3",
"x. c #CBC5C4",
"c. c #CFC9C3",
"v. c #CBC9C5",
"b. c #CCC9C5",
"n. c #CEC8C6",
"m. c #D3CAC0",
"M. c #D3CAC1",
"N. c #D4CBC1",
"B. c #D6CCC3",
"V. c #D6CDC3",
"C. c #D2CBC5",
"Z. c #D3CBC5",
"A. c #D3CCC5",
"S. c #D7CEC5",
"D. c #D7CEC6",
"F. c #D7CFC6",
"G. c #DCCAC1",
"H. c #D3CEC8",
"J. c #D5CECC",
"K. c #D8D0C7",
"L. c #D5D1CD",
"P. c #D8D0C8",
"I. c #D9D1C8",
"U. c #D9D3CB",
"Y. c #DAD3CA",
"T. c #DBD3CB",
"R. c #DBD4CB",
"E. c #DAD3CE",
"W. c #DDD4CC",
"Q. c #DCD5CE",
"!. c #DDD7D1",
"~. c #DED6D3",
"^. c #DFD9D3",
"/. c #EDCAC0",
"(. c #ECCAC1",
"). c #F1CFC5",
"_. c #E0D4CE",
"`. c #E0D6CE",
"'. c #E1D7CF",
"]. c #E1D8CF",
"[. c #F3D5CC",
"{. c #E0D9D1",
"}. c #E2D8D0",
"|. c #E2DDD5",
" X c #E4DDD7",
".X c #E5DDD8",
"XX c #E6DDD9",
"oX c #E4DFD8",
"OX c #E6DFD9",
"+X c #E7DEDA",
"@X c #F4D9D0",
"#X c #F0DCD4",
"$X c #F6DDD4",
"%X c #E5E0D9",
"&X c #E7E2DB",
"*X c #E8E0DA",
"=X c #E8E1DA",
"-X c #EBE4DD",
";X c #E8E4DE",
":X c #E9E4DE",
">X c #EAE5DF",
",X c #EAE6DF",
"<X c #EEE5DF",
"1X c #F7E2DA",
"2X c #F7E3DB",
"3X c #F8E5DD",
"4X c #ECE7E1",
"5X c #ECE8E2",
"6X c #EDE9E3",
"7X c #EEEAE4",
"8X c #EEEBE5",
"9X c #EFEBE6",
"0X c #EFECE6",
"qX c #EFEDE8",
"wX c #F1EAE4",
"eX c #F3EAE4",
"rX c #F3EBE4",
"tX c #F3EAE5",
"yX c #F4EBE4",
"uX c #F4ECE5",
"iX c #F5EDE6",
"pX c #F8E8E0",
"aX c #FAEAE2",
"sX c #FAEDE5",
"dX c #FBEDE5",
"fX c #FBEDE6",
"gX c #FBEEE7",
"hX c #F0EDE8",
"jX c #F1EDE8",
"kX c #F1EEE9",
"lX c #F2EFE9",
"zX c #F2EFEA",
"xX c #F3EFEA",
"cX c #F3F0EB",
"vX c #F7F1EC",
"bX c #F7F2ED",
"nX c #F9F0E9",
"mX c #F9F1EA",
"MX c #FAF1EA",
"NX c #FBF1EA",
"BX c #FBF2EB",
"VX c #FCF2EB",
"CX c #FCF3EC",
"ZX c #FCF4ED",
"AX c #FDF4ED",
"SX c #FDF5EE",
/* pixels */
"G G G G G G G G G G G G G G G G G G G G G G G G G G G G G G G G ",
"G G G 1.%X%Xz.G G G G G G G G G G G G G G G G G G G O.%X%XH.O G ",
"G G G Z.CXfX_.o C G G G G G G G G G G G G G G G G X 2.dXVX*X@ G ",
"G G G Z.NXF =.vX&.G G G G G G G G G G G G G G G Q bX;.N 2X*X@ G ",
"G G G Z.NXD *.VX3.G G G G G G G G G G G G G G G ~ ZX:.m 2X*X@ G ",
"G G G Z.NXD *.VX3.G G G G G G G G G G G G G G G ~ ZX:.m 2X*X@ G ",
"G G G Z.NXD *.VX3.G G G G G G G G G G G G Z Z G ~ ZX:.m 2X*X@ G ",
"G G G Z.NXD *.VX3.G G G G G G G G G G G G G B Z ~ ZX:.m 2X*X# G ",
"G G G Z.VXh.8.9.>.+.p G G G G G G G G G G A 6 o.C.ZX:.v { ) . G ",
"G G G A.CXCX1Xb 6.SXE G G G G G G G G G G G s mXCXZX:.x - G G G ",
"G G G l ! rX1Xb 6.ZXE G G G G G G G G G G G s nX@X5.g./.7 G G G ",
"G G G G % <X1Xb 6.ZXE G G G G G G G G G G Z s nXk.c ).nXe G G G ",
"G G G G % <X1Xb 6.ZXE G G G G G G G G G G G s nXk.c ).nXe G G G ",
"G G G G $ OX#XM 7.ZXE G G G G G G G G G G G s nXl.n (.wX9 G G G ",
"G G G G G = d pXsXCXE G G G G G G G G G G G s nXgXaXR 2 C G G G ",
"G G G G G G r BXCXCXE G * 3 3 3 3 3 3 3 ; G s nXCXZXY G G G G G ",
"G G G G G G r BXCXCXE   !.iXiXiXiXiXiXiX-X> s nXCXZXY G G G G G ",
"G G Z Z G G r BXCXCX| t =XCXCXCXCXCXCXCXyXf U MXCXZXY G G G G G ",
"G G G B Z G r BXCXCXCXCXCXCXCXCXCXCXCXCXCXCXCXCXCXZXY G G G G G ",
"G G A A B G 4 3.E.CX~.x.uXCXCXCXCXCXCXCXnXn.J.BX X4.a G G G G G ",
"G G G A A G B A W ZX} w +XCXCXCXCXCXCXCXtXi J mX$.Z G G G G G G ",
"G G G G G G :  .c.ZX` 1 XXCXCX3Xf.$XCXCXeXu H mXQ...y G G Z Z G ",
"G G G G G G r BXCXZX^ < .XCXCX[.z j.CXCXeXq k mXCXAXT G B Z G G ",
"G G G G G G 0 `.'.'.#._ D.'.'.G.-.p.].'.W.' X.`.'.}.j G B A A G ",
"G G G G G G 8 w.y.e.e.e.e.e.y.y.e.e.e.e.e.y.y.e.e.t.g G A A G G ",
"G G G G G G 8 w.T.5X5X5X5X:Xi.P.5X5X5X5X,Xs.S.4X5X5XL G G G G G ",
"G G G G G G 5 0.U.kXzXcXkX7Xd.T.kXzXcXlX0Xm.K.jXhXqXP G G G G G ",
"G G G G G G G & K N.&XzXI.S.7X&XM.oXcXR.B.6X:XN./ , + G G G G G ",
"G G G G G G G G h <.^.8XK.F.kX>Xm.|.9XY.V.hX;X,.I A G G G G G G ",
"G G G G G G G G G Z ( a.5XzXcXxXlX{.u.>XlXcXL.V A G G G G G G G ",
"G G G G G G G G G A S [ r.v.v.v.b.%.] q.v.v.@.G G G G G G G G G ",
"G G G G G G G G G G G G G G G G G G G G G G G G G G G G G G G G "
};
