/* XPM */
static char *result[] = {
/* columns rows colors chars-per-pixel */
"32 32 139 2 ",
"   c #5D340F",
".  c #5E340F",
"X  c #59371D",
"o  c #5E3A1D",
"O  c #60360F",
"+  c #61360F",
"@  c #62360F",
"#  c #63370F",
"$  c #65380F",
"%  c #643810",
"&  c #663910",
"*  c #663911",
"=  c #6A3B12",
"-  c #6B3C11",
";  c #6B3D13",
":  c #6C3C11",
">  c #6F3D11",
",  c #6D3D12",
"<  c #6E3D12",
"1  c #6F3E12",
"2  c #6D3E17",
"3  c #643C1E",
"4  c #703E11",
"5  c #703E12",
"6  c #46382B",
"7  c #4B392B",
"8  c #643E20",
"9  c #6C411E",
"0  c #714013",
"q  c #744113",
"w  c #774314",
"e  c #794415",
"r  c #7C4614",
"t  c #7C4615",
"y  c #7D4615",
"u  c #7E4615",
"i  c #7D4616",
"p  c #7D4716",
"a  c #59412D",
"s  c #4F4030",
"d  c #494B3F",
"f  c #504030",
"g  c #544030",
"h  c #554534",
"j  c #544736",
"k  c #5C4633",
"l  c #594634",
"z  c #5E4935",
"x  c #594C3A",
"c  c #584C3B",
"v  c #644124",
"b  c #654326",
"n  c #6B4222",
"m  c #704422",
"M  c #714624",
"N  c #7B4C25",
"B  c #7C4D26",
"V  c #734B29",
"C  c #7A4E29",
"Z  c #62503B",
"A  c #62523D",
"S  c #68553E",
"D  c #755436",
"F  c #515244",
"G  c #726149",
"H  c #786A52",
"J  c #824A17",
"K  c #854B17",
"L  c #804918",
"P  c #814A18",
"I  c #854C19",
"U  c #844C1A",
"Y  c #8A4F19",
"T  c #8A4F1A",
"R  c #87501E",
"E  c #8B501A",
"W  c #88501F",
"Q  c #88511F",
"!  c #905219",
"~  c #90531C",
"^  c #91531C",
"/  c #875326",
"(  c #895220",
")  c #8D5321",
"_  c #875328",
"`  c #84542C",
"'  c #905520",
"]  c #975921",
"[  c #975A23",
"{  c #975A24",
"}  c #905A29",
"|  c #905A2B",
" . c #975E29",
".. c #925C2C",
"X. c #995E29",
"o. c #805936",
"O. c #875E39",
"+. c #98602D",
"@. c #9E632D",
"#. c #A2652C",
"$. c #A3652C",
"%. c #A2652E",
"&. c #A3652E",
"*. c #A3662E",
"=. c #A36730",
"-. c #A86A31",
";. c #A86B31",
":. c #A86B32",
">. c #A86B33",
",. c #A96C33",
"<. c #A76F3D",
"1. c #AB6F38",
"2. c #AF723A",
"3. c #AF733C",
"4. c #AE743F",
"5. c #8E6540",
"6. c #926A46",
"7. c #98704B",
"8. c #89775A",
"9. c #8A785B",
"0. c #A3774D",
"q. c #A0774F",
"w. c #B07743",
"e. c #B17743",
"r. c #B97E47",
"t. c #BA7E47",
"y. c #A47A51",
"u. c #A57A51",
"i. c #A87D53",
"p. c #8A7D62",
"a. c #AE8155",
"s. c #978667",
"d. c #93876C",
"f. c #94876C",
"g. c #9C8D6F",
"h. c #998D71",
"j. c #9C8F72",
"k. c #9E9072",
"l. c None",
/* pixels */
"l.l.l.l.l.l.l.l.l.l.l.l.l.l.l.l.l.l.l.l.l.l.l.l.l.l.l.l.l.l.l.l.",
"l.l.l.l.l.l.l.l.l.l.l.l.l.l.l.l.l.l.l.l.l.l.l.l.l.l.l.l.l.l.l.l.",
"l.l.l.l.l.l.l.l.l.l.l.l.l.l.l.l.l.l.l.l.l.l.l.l.l.l.l.l.l.l.l.l.",
"l.l.l.l.l.l.l.l.l.l.l.l.l.l.l.l.l.l.l.l.l.l.l.l.l.l.l.l.l.l.l.l.",
"l.l.l.l.l.l.l.l.l.l.l.l.l.l.l.l.l.l.l.l.l.l.l.l.l.l.l.l.l.l.l.l.",
"l.l.l.l.l.l.l.l.l.l.l.l.l.l.l.l.l.l.l.l.l.l.l.l.l.l.l.l.l.l.l.l.",
"l.l.l.l.l.l.l.l.l.l.l.l.l.l.l.l.l.l.l.l.l.l.l.l.l.l.l.l.l.l.l.l.",
"l.l.l.l.l.l.l.l.l.l.l.l.l.l.l.l.l.l.l.l.l.l.l.l.l.l.l.l.l.l.l.l.",
"l.l.l.l.l.l.l.l.t V A A V t r t t r t V A A V t l.l.l.l.l.l.l.l.",
"l.l.l.l.l.l.l.l.| O.G G O.............O.G G O.| l.l.l.l.l.l.l.l.",
"l.l.l.l.l.l.t } <.0.9.8.0.w.e.w.w.e.w.0.8.9.0.<.} t l.l.l.l.l.l.",
"l.l.l.l.l.l.Q +.4.a.s.s.a.r.t.r.r.t.r.a.s.s.a.4.+.Q l.l.l.l.l.l.",
"l.l.l.l.t W  .=.1.i.g.g.i.3.2.3.3.2.3.i.g.g.i.1.=. .W t l.l.l.l.",
"l.l.l.l.t ( @.:.,.u.k.k.u.>.:.>.>.:.>.u.k.k.u.,.:.@.( t l.l.l.l.",
"l.l.l.l.t ( @.;.>.y.k.k.y.>.-.>.>.-.>.y.k.k.y.>.;.@.( t l.l.l.l.",
"l.l.l.l.t R X.#.*.q.j.j.q.%.$.&.&.$.%.q.j.j.q.*.#.X.R t l.l.l.l.",
"l.l.l.l.t U ' ] { 7.h.h.7.[ ] [ [ ] [ 7.h.h.7.{ ] ' U t l.l.l.l.",
"l.l.l.l.t J E ! ^ 6.d.f.6.) / ` ` / ) 6.f.d.6.^ ! E J t l.l.l.l.",
"l.l.l.l.t J E ! ~ 5.p.p.5._ D S S D _ 5.p.p.5.~ ! E J t l.l.l.l.",
"l.l.l.l.q e L K I o.H H o.C Z F F Z C o.H H o.I K L e q l.l.l.l.",
"l.l.l.l.% * = : ; b c x b v j d d j v b x c b ; : = * % l.l.l.l.",
"l.l.l.l.  . O @ @ X 6 6 X o a h h a o X 6 6 X @ @ O .   l.l.l.l.",
"l.l.l.l.# & - > < 8 s f 8 2 9 n n 9 2 8 f s 8 < > - & # l.l.l.l.",
"l.l.l.l.& , w y p M l l M i y i i y i M l l M p y w , & l.l.l.l.",
"l.l.l.l.& 0 P Y T B z z B T Y Y Y Y T B z z B T Y P 0 & l.l.l.l.",
"l.l.l.l.& 0 P Y T N k k N T Y T T Y T N k k N T Y P 0 & l.l.l.l.",
"l.l.l.l.& , w u p m g g m i u i i u i m g g m p u w , & l.l.l.l.",
"l.l.l.l.+ $ : 4 5 3 7 7 3 1 4 1 1 4 1 3 7 7 3 5 4 : $ + l.l.l.l.",
"l.l.l.l.l.l.l.l.l.l.l.l.l.l.l.l.l.l.l.l.l.l.l.l.l.l.l.l.l.l.l.l.",
"l.l.l.l.l.l.l.l.l.l.l.l.l.l.l.l.l.l.l.l.l.l.l.l.l.l.l.l.l.l.l.l.",
"l.l.l.l.l.l.l.l.l.l.l.l.l.l.l.l.l.l.l.l.l.l.l.l.l.l.l.l.l.l.l.l.",
"l.l.l.l.l.l.l.l.l.l.l.l.l.l.l.l.l.l.l.l.l.l.l.l.l.l.l.l.l.l.l.l."
};
