/* XPM */
static char *result[] = {
/* columns rows colors chars-per-pixel */
"32 32 58 1 ",
"  c #224B35",
". c #244E38",
"X c #26543C",
"o c #295B41",
"O c #266544",
"+ c #2B6346",
"@ c #276A47",
"# c #296947",
"$ c #2D6749",
"% c #266F49",
"& c #2E6B4C",
"* c #306F4F",
"= c #26754C",
"- c #2C734E",
"; c #25794D",
": c #31704F",
"> c #2E7651",
", c #277E51",
"< c #2D7C53",
"1 c #317150",
"2 c #317953",
"3 c #268655",
"4 c #2B8255",
"5 c #268A57",
"6 c #298857",
"7 c #2E8658",
"8 c #258E58",
"9 c #2D8A5A",
"0 c #308458",
"q c #318C5C",
"w c #25945C",
"e c #2B935D",
"r c #249A5F",
"t c #31905E",
"y c #2E9660",
"u c #269E61",
"i c #2B9C62",
"p c #309E65",
"a c #26A364",
"s c #2AA465",
"d c #26A867",
"f c #29A967",
"g c #27AC69",
"h c #2AAC6A",
"j c #27B06B",
"k c #2AB36E",
"l c #2DB670",
"z c #2BBB72",
"x c #32B471",
"c c #31BB74",
"v c #2DC176",
"b c #2FC479",
"n c #31C077",
"m c #31C57A",
"M c #33CB7D",
"N c #34CF80",
"B c #36D383",
"V c None",
/* pixels */
"VVVVVVVVVV1111111111*:VVVVVVVVVV",
"VVVVVVVVVV<2097q07<>&*VVVVVVVVVV",
"VVVV11111<4wshhhgse,$o*11:VVVVVV",
"VVVV&&14qeiazvvnvzsw9qqq01VVVVVV",
"VVVVo#,yxczzMMMBNmzkccmxe4<*VVVV",
"VVVVO;elMBmbMBMMMmnmBBBMki4<VVVV",
"VV1>,ezMBBBMbbbzhkmNBBBBMci4>1VV",
"VV<4ehMBBBMmzkzzhhcMNBBBBmhe4<VV",
"1>4wdzNBBBmzagnMMchjzmBBBBzfw4<1",
"1<3rjvNBMnldahMBBMkgkvmBBNvjr6<1",
"1>6rgbBMkauugzMBBBMbzzvbBMvjr3>1",
"1<3ukznzsruusxMBBBBMvzjlmMvgw,>1",
"1<3rjkgshgjaeixmBBBBvkaalvzf3OVV",
"&-3azlurjzzgyeskmBBMzdaadzzk3OVV",
"oO3avzsujzzzjstizmBMhafgadnci,>1",
"XO=exxirdkzzvkt9hcccsakjrazxi,-&",
"VVO-7yw8rakvMcaehkppfkljrwae6-+X",
"VVO@><,33ikbmzirsi99hzvzr888q4$X",
"XO;33,%#-ycmkiw8976ejvmna88wsr=X",
"XO,8w5%+-exci583<-,wdlncr8wafe-X",
".o-9fs0>,eii7433<*#;8uai69sst4+X",
"Xo$<ii02eww3,<44<-@=338320pi0$XX",
"VVo&<027sdr533<,433;<443<204&XVV",
"VVXo&117iaurw4<4388866642::*oXVV",
"VVXo&*110ehs9<43588wss9<:::&XXVV",
"VVXX+&1110yi0<438wrase011:*$XXVV",
"VVV X+&11----:145rda3<:11&+X VVV",
"VVVV X$*:&++**12,wsi-+&::$X VVVV",
"VVVVVVV+&*&*1111><94:&:&+VVVVVVV",
"VVVVVVVV&&&&&&&&&&&*&&&&VVVVVVVV",
"VVVVVVVVVVVVVVVVVVVVVVVVVVVVVVVV",
"VVVVVVVVVVVVVVVVVVVVVVVVVVVVVVVV"
};
